<svg width="150" height="112" viewBox="0 0 150 112" fill="none" xmlns="http://www.w3.org/2000/svg">
<path d="M93.8755 71.7252C102.307 71.7252 109.142 64.8902 109.142 56.4588C109.142 48.0274 102.307 41.1924 93.8755 41.1924C85.4441 41.1924 78.6091 48.0274 78.6091 56.4588C78.6091 64.8902 85.4441 71.7252 93.8755 71.7252Z" fill="white"/>
<path fill-rule="evenodd" clip-rule="evenodd" d="M36.4182 0.666992C30.2863 0.666992 25.3154 5.63791 25.3154 11.7698C25.3154 17.9018 30.2863 22.8727 36.4182 22.8727H49.7376C48.0279 25.149 46.4889 27.5609 45.1401 30.0895H11.4368C5.30492 30.0895 0.333984 35.0605 0.333984 41.1924C0.333984 47.3243 5.30492 52.2953 11.4368 52.2953H38.7727C38.684 53.5791 38.6388 54.8749 38.6388 56.1813C38.6388 57.2996 38.6719 58.4102 38.7371 59.5121H22.5397C16.4078 59.5121 11.4368 64.483 11.4368 70.615C11.4368 76.7469 16.4078 81.7178 22.5397 81.7178H44.848C46.1585 84.2431 47.6574 86.6549 49.326 88.9347H47.5211C41.3892 88.9347 36.4182 93.9056 36.4182 100.038C36.4182 106.169 41.3892 111.14 47.5211 111.14H86.2719C88.8463 111.506 91.4776 111.696 94.1531 111.696C124.813 111.696 149.667 86.8409 149.667 56.1813C149.667 25.5216 124.813 0.666992 94.1531 0.666992C93.6397 0.666992 93.128 0.673959 92.618 0.687805C92.3912 0.673998 92.1627 0.666992 91.9325 0.666992H36.4182ZM91.9325 88.9347C93.123 88.9347 94.2697 89.122 95.3448 89.4689C113.189 88.8414 127.462 74.1781 127.462 56.1813C127.462 37.7854 112.549 22.8727 94.1531 22.8727C75.7573 22.8727 60.8445 37.7854 60.8445 56.1813C60.8445 72.4976 72.5764 86.0739 88.0648 88.9347H91.9325Z" fill="white"/>
</svg>
